<svg viewBox="0 0 93 29" fill="none" xmlns="http://www.w3.org/2000/svg">
  <path class="fill-1" fill-rule="evenodd" clip-rule="evenodd" d="M44.7827 10.2498C44.7827 9.00693 45.1007 8.20316 46.0568 7.6075L47.059 6.98703L46.6922 6.33934L46.2269 6.59779C45.6639 6.90899 45.2719 7.11565 44.4647 6.62501L42.09 5.20029L39.0067 7.21947L36.5124 5.20029L33.6239 7.03906C33.5014 6.10643 32.6441 4.52683 30.32 5.48427C29.7814 5.71863 29.0233 6.02839 28.632 6.18374C27.7992 6.49567 27.3833 6.08162 27.8969 5.30362L28.2896 4.7082L27.7498 4.31873C27.0651 5.25184 26.7953 5.64035 26.7953 5.64035C25.6935 7.16792 26.3794 8.38525 27.9953 8.15161C28.3868 8.10007 29.0233 7.99577 29.4388 7.91918C30.5415 7.71179 30.687 8.15161 30.687 9.26537V16.8261C30.687 17.8614 30.5163 18.7427 29.7566 19.3653L30.0027 19.8047L32.4495 18.1728C33.4286 17.5261 33.6239 16.5939 33.6239 15.3V7.89268L34.8726 7.14287L35.8995 8.02275C36.2665 8.33323 36.3409 8.48955 36.3409 9.18806V23.4822H36.5376C37.5149 22.9386 38.2227 22.5753 38.2227 22.5753C39.1297 22.0837 39.2765 21.9279 39.2765 20.8406V7.94399L40.5736 7.11565L43.4616 8.90359L43.0698 9.21431C42.3846 9.75698 41.8936 10.6385 41.8936 12.2952V21.1509C41.8936 21.9542 42.09 22.3689 42.5565 22.7052L43.6082 23.4574L46.6681 21.5148L46.3737 20.8915L45.4932 21.437L45.1745 21.2552C44.8567 21.0728 44.7827 20.7898 44.7827 20.1665V10.2498ZM28.7294 21.9542C30.0027 22.0057 30.7118 22.756 30.9565 23.4822L34.4082 21.3072L34.0899 20.6332L32.9879 21.2812C32.3272 20.5304 31.3975 20.0634 30.0746 20.0634C27.5548 20.0903 25.1565 22.0057 24.1277 23.1973L24.3979 23.5605C25.8162 22.4207 27.5293 21.9279 28.7294 21.9542ZM17.6305 16.2054L19.8331 14.7554L17.8266 12.2952L17.6305 12.4241V16.2054ZM19.1235 10.3531L22.403 14.1858L17.6305 17.2667V19.5975C17.6305 19.9343 17.6551 20.0903 17.8755 20.244L19.6865 21.5656L21.6937 20.4259L22.0117 21.1509L18.1687 23.5082L15.4519 21.6444C15.2074 21.4625 15.0606 21.2031 15.0606 20.7898V13.6161L14.0075 14.2366V13.5116L19.1235 10.3531ZM12.1574 5.22582C14.4826 5.22582 15.657 6.57178 16.098 7.29654L12.6964 9.55032V8.74848L13.381 8.25519C13.6255 8.07405 13.6756 7.94399 13.6255 7.66001C13.5039 7.06411 12.7208 6.00261 11.7417 6.00261C10.2977 6.00261 9.66094 7.32328 9.66094 9.08521C9.66094 10.1716 9.87516 11.4336 10.0796 12.6382C10.26 13.7011 10.4329 14.7192 10.4443 15.5327C10.4691 16.9302 10.0045 17.7323 9.17195 18.3816L7.4582 19.7023L7.16544 19.3384C7.4582 18.9253 7.60594 18.3816 7.65397 17.6299C7.70388 16.5025 7.47122 15.2091 7.23893 13.9179L7.23893 13.9179C7.01237 12.6585 6.78618 11.4012 6.82282 10.3016C6.92117 7.50465 9.36796 5.20029 12.1574 5.22582ZM13.4538 20.8679L13.7468 21.4898L10.8113 23.5082C10.3712 22.5505 9.31924 21.9033 8.04644 21.9033C6.48043 21.9033 4.69269 22.4455 2.95595 23.6636L2.73535 23.3526C4.00769 21.6952 6.79846 19.7794 9.07474 19.8047C11.2279 19.8047 12.1341 20.6588 12.6964 21.385L13.4538 20.8679ZM53.7442 21.411L53.598 21.437L51.5899 20.1932C51.2487 19.986 51.1735 19.7531 51.1735 19.2866L51.1993 12.4763L51.3454 12.4241L53.2795 13.6161C53.6702 13.8493 53.7442 14.0567 53.7442 14.496V21.411ZM69.5249 21.7988L69.2804 21.2031L68.3739 21.748L68.0575 21.5401C67.7149 21.333 67.6409 21.0728 67.6409 20.4521V13.0202C67.6409 12.4241 67.5188 12.1661 67.1751 11.9067L65.2904 10.4044L62.378 12.1661L60.8366 10.4044L57.7526 12.3995L58.1692 12.9157L59.221 12.2444L59.9795 13.1498V23.4574H60.1755C61.3998 22.8856 61.7909 22.7052 61.7909 22.7052C62.378 22.4455 62.5501 22.2389 62.5501 21.5148V12.9157L63.5545 12.2952L64.729 13.2796C65.0461 13.5639 65.0948 13.7973 65.0948 14.2366L65.1196 21.2812C65.1196 22.0572 65.34 22.4978 65.8288 22.8087L66.8575 23.4574L69.5249 21.7988ZM57.3911 20.3228L57.1705 19.7531L56.3141 20.2187V13.2014C56.3141 12.8403 56.1928 12.5546 55.8502 12.346L52.6917 10.3531L47.5764 13.5116V14.2633L48.63 13.6161V20.4781C48.63 21.0986 48.7755 21.333 49.144 21.5656L52.2517 23.5082L57.3911 20.3228ZM84.3989 16.2054L86.6019 14.7554L84.6198 12.2952L84.3989 12.4241V16.2054ZM85.8914 10.3531L89.1958 14.1858L84.3989 17.2667V19.5975C84.3989 19.9343 84.4226 20.0634 84.6678 20.244L86.4792 21.5656L88.4866 20.4259L88.7792 21.1509L84.9376 23.5082L82.2203 21.6444C81.9756 21.4625 81.829 21.2031 81.829 20.7898V13.6161L80.7768 14.2366V13.5116L85.8914 10.3531ZM79.4562 19.7531L79.6756 20.349L74.5603 23.5082L71.6236 21.5656C71.281 21.333 71.1344 21.0986 71.1344 20.5304V13.9524L70.1314 14.522V13.8221L76.0539 10.197V9.78372C76.0539 8.82628 75.5399 7.89268 74.7561 7.42661L74.0238 6.98703L72.8967 7.63399L72.2114 7.29654L75.6633 5.17356L76.7642 5.89904C77.8899 6.62501 78.5745 7.66001 78.5745 9.26537V20.244L79.4562 19.7531ZM75.9071 21.437L76.0539 21.411V11.4659L75.8825 11.3619L73.705 12.762V19.3653C73.705 19.83 73.8275 20.0118 74.169 20.244L75.9071 21.437Z" />
  <path class="fill-2" fill-rule="evenodd" clip-rule="evenodd" d="M25.8161 6.21002C25.6208 6.80592 25.6452 7.37509 25.8897 7.84188C26.111 8.25521 26.5016 8.54087 26.9678 8.67046C25.5229 8.79956 24.8876 7.58271 25.8161 6.21002ZM29.6348 18.6656C29.7566 18.2511 29.8064 17.7843 29.8064 17.2927V9.757C29.8064 8.85063 29.7566 8.7485 29.4629 8.46356H29.5123C29.9282 8.38528 30.1483 8.46356 30.1483 9.2389V16.8006C30.1483 17.6815 30.0026 18.2511 29.6348 18.6656ZM28.2638 22.5754C29.2917 22.731 29.8802 23.3011 30.0746 23.9748L30.4422 23.7404L30.4179 23.6636C30.3446 23.4039 29.9767 22.5754 28.7055 22.5506C28.558 22.5506 28.4116 22.5506 28.2638 22.5754ZM66.2938 23.7932L65.5606 23.3276C64.8995 22.9116 64.5564 22.2659 64.5564 21.2812V14.2634C64.5564 13.8909 64.5372 13.8747 64.4258 13.7807C64.4134 13.7702 64.3998 13.7588 64.385 13.7457C64.385 13.7457 63.8712 13.3052 63.5286 13.0202L63.162 13.2286L63.8712 13.7973C64.2203 14.0736 64.2199 14.1244 64.2156 14.5717C64.215 14.6266 64.2145 14.6875 64.2145 14.7554V21.5657C64.2145 22.4978 64.581 23.145 65.0948 23.4574L65.9758 23.9748L66.2938 23.7932ZM59.4408 13.3825V23.9216H59.4169C59.4169 23.9216 59.3436 23.9483 59.2956 23.9748H59.0982V13.6679L58.7317 13.2286L59.1231 12.995L59.4408 13.3825ZM51.6884 23.8452L48.874 22.0573C48.3108 21.6952 48.0915 21.2552 48.0915 20.4782V14.6259L47.8468 14.7554L47.7476 14.807V20.7631C47.7476 21.4626 48.0408 21.9787 48.556 22.2911L51.3693 24.0259L51.6884 23.8452ZM53.2062 14.6259V20.5304L52.864 20.3228L52.8875 15.0148C52.8875 14.4703 52.8875 14.418 52.3985 14.1335L51.7371 13.7457V13.357L52.8875 14.0815C53.1094 14.2104 53.2062 14.3149 53.2062 14.6259ZM75.5153 9.8613V9.78374C75.5153 9.05849 75.0994 8.3082 74.4617 7.9192C74.2174 7.76336 73.9982 7.63402 73.9982 7.63402L73.705 7.84188L73.8751 7.94401C74.7069 8.43754 75.1738 9.05849 75.1738 10.0675L75.5153 9.8613ZM81.9548 22.1091L84.4267 23.8185L84.0834 24.0259L81.6361 22.3172C81.2209 22.0322 80.975 21.5657 80.975 20.8915V14.807L81.0734 14.7554L81.3183 14.5991V20.7898C81.3183 21.5148 81.6621 21.9034 81.9548 22.1091ZM73.9982 23.8185L71.3536 22.0573C70.7191 21.6444 70.5957 21.2552 70.5957 20.5027V14.9368L70.4 15.0411L70.2531 15.1179V20.6333C70.2531 21.5148 70.5231 21.9034 70.9384 22.1876L73.679 24.0259L73.9982 23.8185ZM84.9375 13.6161L85.7693 14.6259L85.4015 14.8593L84.9623 14.2889L84.9375 13.6161ZM75.5153 20.4782V12.2685L75.1738 12.5026V20.244L75.5153 20.4782ZM13.2095 7.76336C13.1367 7.40158 12.5477 6.5718 11.8882 6.5718C11.7405 6.5718 11.6431 6.59782 11.5459 6.62503C12.1815 6.88396 12.6707 7.55525 12.8184 8.02277L13.1849 7.78986V7.76336H13.2095ZM17.5119 23.8185L15.0642 22.1091C14.7698 21.9034 14.4277 21.5148 14.4277 20.7898V14.5991L14.1825 14.7554L14.0851 14.807V20.9702C14.0851 21.4886 14.3535 22.0322 14.72 22.2911L17.1941 24.0259L17.5119 23.8185ZM6.70053 14.0032C6.92113 15.247 7.1399 16.5419 7.09118 17.6037C7.06751 18.2511 6.94526 18.6905 6.74857 18.9761L6.70053 19.0281C6.72421 18.795 6.74857 18.4585 6.7727 18.1223C6.82275 16.9907 6.58865 15.6928 6.35565 14.401C6.12981 13.1489 5.90501 11.9026 5.94109 10.8192C5.96636 9.91236 6.25935 9.05849 6.72421 8.3082C6.45535 8.92963 6.3331 9.60309 6.30783 10.3016C6.28302 11.4392 6.48039 12.7351 6.70053 14.0032ZM10.3213 23.7677C9.95435 22.9639 9.0747 22.473 8.04641 22.473C7.94783 22.4978 7.84994 22.4978 7.75251 22.4978C8.75599 22.6801 9.61173 23.2748 9.93067 24.0259L10.3213 23.7677ZM18.1687 13.6161L19.0016 14.6259L18.6335 14.8593L18.1939 14.2889L18.1687 13.6161ZM42.238 9.21433L40.2797 7.9958L40.5736 7.78986L42.4581 8.95565C42.3846 9.03296 42.3113 9.11028 42.238 9.21433ZM41.8708 23.3526L42.7272 23.9748L43.0459 23.7677L42.2625 23.1973C41.626 22.731 41.3563 22.1091 41.3563 21.1509L41.3321 12.2952C41.3321 11.492 41.4303 10.7925 41.6502 10.2238C41.2595 10.7925 41.0143 11.6213 41.0143 12.8129V21.4626C41.0143 22.2389 41.3075 22.9386 41.8708 23.3526ZM35.7772 23.896C35.7772 23.896 35.7037 23.9483 35.6552 23.9748H35.4592V9.52529C35.4592 8.86266 35.4156 8.82819 35.0777 8.56087L35.0194 8.51462L34.4562 8.04879L34.8241 7.84188C34.9249 7.93064 35.0432 8.03184 35.155 8.12749C35.3684 8.3101 35.5582 8.4725 35.5582 8.48957C35.7294 8.67046 35.7772 8.77355 35.7772 9.18808V23.896Z" />
</svg>
