<svg width="6" height="10" viewBox="0 0 6 10" fill="none" xmlns="http://www.w3.org/2000/svg">
<rect width="6" height="10" fill="white"/>
<path fill-rule="evenodd" clip-rule="evenodd" d="M6 4.98821C6 4.71449 5.85405 4.47395 5.63357 4.3352L1.41325 0.245932C1.40155 0.233856 1.38948 0.222158 1.37703 0.210825L1.37603 0.20987C1.23246 0.0797642 1.03968 0 0.827586 0C0.383963 0 0.0243408 0.348455 0.0243408 0.778302C0.0243408 1.01636 0.134763 1.22932 0.308544 1.37208L4.03975 4.98742L0.272057 8.63813C0.105298 8.78073 0 8.98925 0 9.2217C0 9.65155 0.359623 10 0.803245 10C1.04315 10 1.25834 9.89797 1.40552 9.73639L5.62905 5.64403C5.85204 5.50573 6 5.2638 6 4.98821Z" fill="#2A303C"/>
</svg>
