<svg id="Calque_1" data-name="Calque 1" xmlns="http://www.w3.org/2000/svg" viewBox="0 0 93 27"><defs><style>.cls-1{fill:#fff;}.cls-2,.cls-3{fill:#0f1116;fill-rule:evenodd;}.cls-2{fill-opacity:0.45;}</style></defs><rect id="background" class="cls-1" width="93" height="27"/><path id="fill-2" class="cls-2" d="M25.8164,5.8236a1.8374,1.8374,0,0,0,.0735,1.53,1.7058,1.7058,0,0,0,1.0782.777C25.5232,8.252,24.8878,7.1109,25.8164,5.8236ZM29.635,17.5042a4.3365,4.3365,0,0,0,.1716-1.2875V9.15c0-.85-.05-.9458-.3435-1.213h.0494c.4159-.0734.6361,0,.6361.7271v7.0912A2.3787,2.3787,0,0,1,29.635,17.5042Zm-1.3709,3.6665a2.0273,2.0273,0,0,1,1.8107,1.3123l.3677-.22-.0244-.072a1.6491,1.6491,0,0,0-1.7124-1.0438A2.8071,2.8071,0,0,0,28.2641,21.1707Zm38.03,1.142-.7333-.4366a2.0282,2.0282,0,0,1-1.0042-1.9191V13.3758c0-.3492-.0191-.3644-.13-.4525l-.0409-.0329s-.5138-.4131-.8564-.68l-.3665.1954.7091.5333c.3492.2591.3487.3068.3444.7262-.0005.0515-.0011.1086-.0011.1723v6.3865a1.9348,1.9348,0,0,0,.88,1.774l.881.4852ZM59.4411,12.55v9.8833h-.0239a1.1185,1.1185,0,0,0-.1214.05h-.1973V12.8175l-.3665-.412.3913-.2191Zm-7.7524,9.8117-2.8145-1.6767a1.5015,1.5015,0,0,1-.7824-1.4809V13.7158l-.2447.1215-.0993.0483v5.5856a1.5554,1.5554,0,0,0,.8084,1.4329L51.37,22.5309Zm1.5177-8.6457V19.253l-.3421-.1947.0234-4.9777c0-.5107,0-.56-.489-.8265l-.6613-.3637v-.3645l1.15.6794A.485.485,0,0,1,53.2064,13.7158ZM75.5155,9.2477V9.175A2.0917,2.0917,0,0,0,74.462,7.4264c-.2443-.1461-.4635-.2674-.4635-.2674l-.2933.1949.17.0958A2.1406,2.1406,0,0,1,75.174,9.441Zm6.44,11.4857,2.4718,1.603-.3433.1945-2.4472-1.6024a1.4822,1.4822,0,0,1-.6611-1.3369v-5.706l.0983-.0483.245-.1466v5.8055A1.3959,1.3959,0,0,0,81.9551,20.7334Zm-7.9566,1.603-2.6447-1.6516a1.4009,1.4009,0,0,1-.7578-1.4578v-5.22l-.1958.0978-.1468.0721v5.1721a1.4951,1.4951,0,0,0,.6852,1.4576l2.7407,1.7239Zm10.9393-9.5675.8318.9469-.3679.2189L84.9626,13.4Zm-9.4223,6.435V11.5051l-.3415.22v7.26ZM13.21,7.28a1.6712,1.6712,0,0,0-1.3213-1.1174,1.2206,1.2206,0,0,0-.3424.05,2.3648,2.3648,0,0,1,1.2726,1.3108l.3665-.2185V7.28Zm4.3023,15.0561-2.4477-1.603a1.3927,1.3927,0,0,1-.6365-1.2372V13.6907l-.2452.1466-.0974.0483v5.78a1.5585,1.5585,0,0,0,.6349,1.2387l2.4741,1.6268ZM6.7008,13.1319a15.55,15.55,0,0,1,.3906,3.3764,2.3149,2.3149,0,0,1-.3426,1.2871l-.048.0488c.0237-.2187.048-.5342.0721-.85a15.6634,15.6634,0,0,0-.417-3.49,15.8979,15.8979,0,0,1-.4146-3.359,4.5162,4.5162,0,0,1,.7832-2.3548,4.8711,4.8711,0,0,0-.4164,1.8694A17.737,17.737,0,0,0,6.7008,13.1319Zm3.6208,9.1569a2.4446,2.4446,0,0,0-2.275-1.2141,1.2612,1.2612,0,0,1-.2939.0232,2.8956,2.8956,0,0,1,2.1782,1.433Zm7.8473-9.52.833.9469-.3681.2189-.44-.5349ZM42.2382,8.641,40.28,7.4983l.2939-.1932,1.8845,1.0933A2.093,2.093,0,0,0,42.2382,8.641ZM41.871,21.9l.8564.5834.3187-.1942-.7833-.5349a2.084,2.084,0,0,1-.9063-1.9191L41.3324,11.53a5.1375,5.1375,0,0,1,.318-1.9426,4.0183,4.0183,0,0,0-.6358,2.428v8.1115A2.0943,2.0943,0,0,0,41.871,21.9Zm-6.0935.51s-.0736.049-.122.0738h-.1961V8.9326c0-.6214-.0435-.6537-.3814-.9044L35.02,7.9848l-.5632-.4368.3679-.1941c.1008.0832.2191.1781.3308.2678l0,0a4.2493,4.2493,0,0,1,.4033.3395c.1712.17.219.2663.219.6551Z"/><path id="fill-1" class="cls-3" d="M44.7827,9.612a2.5045,2.5045,0,0,1,1.2741-2.4779l1.0022-.5818-.3668-.6074-.4653.2424a1.5013,1.5013,0,0,1-1.7622.0255L42.09,4.8767,39.0067,6.77,36.5124,4.8767,33.6239,6.601c-.1225-.8746-.98-2.3558-3.3039-1.458-.5386.22-1.2967.51-1.688.656-.8328.2925-1.2487-.0958-.7351-.8254l.3927-.5584L27.75,4.05c-.6847.875-.9545,1.2394-.9545,1.2394-1.1018,1.4325-.4159,2.5741,1.2,2.355.3915-.0484,1.028-.1462,1.4435-.218,1.1027-.1945,1.2482.218,1.2482,1.2624v7.09a2.7256,2.7256,0,0,1-.93,2.3812l.2461.412,2.4468-1.53a2.7352,2.7352,0,0,0,1.1744-2.694V7.4016l1.2487-.7032L35.9,7.5235c.367.2912.4414.4378.4414,1.0928V22.0211h.1967c.9773-.51,1.6851-.8505,1.6851-.8505.907-.461,1.0538-.6071,1.0538-1.6267V7.45l1.2971-.7768L43.4616,8.35,43.07,8.641A3.2657,3.2657,0,0,0,41.8936,11.53v8.3046a1.5129,1.5129,0,0,0,.6629,1.4576l1.0517.7054,3.06-1.8217-.2944-.5846-.88.5116-.3187-.1705c-.3178-.171-.3918-.4364-.3918-1.021ZM28.7294,20.5881a2.3128,2.3128,0,0,1,2.2271,1.433l3.4517-2.04-.3183-.632-1.102.6076a3.7814,3.7814,0,0,0-2.9133-1.142,9.1747,9.1747,0,0,0-5.9469,2.9389l.27.3406A7.4147,7.4147,0,0,1,28.7294,20.5881Zm-11.0989-5.391,2.2026-1.36L17.8266,11.53l-.1961.1208Zm1.493-5.4882,3.2795,3.5942-4.7725,2.8892v2.1858c0,.3158.0246.4622.245.6063l1.811,1.2394,2.0072-1.0689.318.68-3.843,2.2107-2.7168-1.7479a.8968.8968,0,0,1-.3913-.8014V12.7689l-1.0531.5818v-.68ZM12.1574,4.9007A4.5091,4.5091,0,0,1,16.098,6.8425L12.6964,8.9561v-.752l.6846-.4626a.4585.4585,0,0,0,.2445-.5581,2.2035,2.2035,0,0,0-1.8838-1.5543c-1.444,0-2.0808,1.2385-2.0808,2.8908a19.907,19.907,0,0,0,.4187,3.3319h0a18.2746,18.2746,0,0,1,.3647,2.7144A2.9048,2.9048,0,0,1,9.172,17.2379L7.4582,18.4764l-.2928-.3413a2.8943,2.8943,0,0,0,.4886-1.6022,15.6586,15.6586,0,0,0-.4151-3.481,16.041,16.041,0,0,1-.4161-3.3913A5.2276,5.2276,0,0,1,12.1574,4.9007Zm1.2964,14.6687.293.5832-2.9355,1.8929A2.9934,2.9934,0,0,0,8.0464,20.54a9.38,9.38,0,0,0-5.09,1.6508L2.7353,21.9c1.2724-1.5543,4.0632-3.3509,6.3394-3.3272a4.172,4.172,0,0,1,3.6217,1.482Zm40.29.5093-.1462.0244L51.59,18.9367c-.3412-.1942-.4164-.4127-.4164-.85L51.1993,11.7l.1461-.049L53.28,12.7689a.7681.7681,0,0,1,.4647.8251Zm15.7807.3637-.2445-.5586-.9065.511-.3164-.195c-.3426-.1942-.4166-.4382-.4166-1.02V12.21a1.06,1.06,0,0,0-.4658-1.0443L65.29,9.757,62.378,11.4091,60.8366,9.757l-3.084,1.871.4166.484,1.0518-.63.7585.8491v9.6662h.196c1.2243-.5362,1.6154-.7054,1.6154-.7054a.9685.9685,0,0,0,.7592-1.1163V12.112l1.0044-.5818,1.1745.9231a.9634.9634,0,0,1,.3658.8974L65.12,19.957a1.4594,1.4594,0,0,0,.7092,1.4325l1.0287.6083ZM57.3911,19.0582l-.2206-.5342-.8564.4366V12.38a.8454.8454,0,0,0-.4639-.8021L52.6917,9.7089l-5.1153,2.9619v.705l1.0536-.6069v6.435a.9669.9669,0,0,0,.514,1.02l3.1077,1.8217Zm27.0078-3.8611,2.203-1.36L84.62,11.53l-.2209.1208Zm1.4925-5.4882,3.3044,3.5942-4.7969,2.8892v2.1858c0,.3158.0237.4369.2689.6063l1.8114,1.2394,2.0074-1.0689.2926.68-3.8416,2.2107L82.22,20.2976a.8964.8964,0,0,1-.3913-.8014V12.7689l-1.0522.5818v-.68ZM79.4562,18.524l.2194.5588L74.56,22.0455l-2.9367-1.8217a.9587.9587,0,0,1-.4892-.9709V13.0842l-1.003.5342V12.962l5.9225-3.3995V9.1749a2.5793,2.5793,0,0,0-1.2978-2.21l-.7323-.4122-1.1271.6067-.6853-.3165,3.4519-1.9909,1.1009.68a3.44,3.44,0,0,1,1.81,3.1568V18.9844Zm-3.5491,1.5791.1468-.0244V10.7525l-.1714-.0976-2.1775,1.313V18.16a.8126.8126,0,0,0,.464.824Z"/></svg>