<svg xmlns="http://www.w3.org/2000/svg" viewBox="0 0 181 20"><rect id="background" width="181" height="20"/><g id="fill-1"><path d="M.8555,2.26a9.2655,9.2655,0,0,0,1.58.7V13.54a7.5251,7.5251,0,0,0-1.58.68V15h5.5v-.78a8.3509,8.3509,0,0,0-1.64-.68V8.78h2.68a5.9825,5.9825,0,0,0,.62,1.3h.9V6.34h-.9a6.0576,6.0576,0,0,0-.62,1.3h-2.68V2.72h3.28a7.6677,7.6677,0,0,0,.66,1.9h1.02V1.5H.8555Z"/><path d="M14.2489,7.34h-.06a21.96,21.96,0,0,0,.18-2.4,16.5108,16.5108,0,0,0-3.7.3v.8a9.1359,9.1359,0,0,1,1.54.4v7.14a5.8244,5.8244,0,0,0-1.54.64V15h5.3v-.78a7.5556,7.5556,0,0,0-1.54-.64V10.04c0-1.64.78-3.22,1.98-3.22a3.7876,3.7876,0,0,1,1.52.38l.28-2.18a4.8227,4.8227,0,0,0-1.44-.22C15.5489,4.8,14.7689,5.82,14.2489,7.34Z"/><path d="M26.4683,13.16a3.6407,3.6407,0,0,1-.14-1.14V7.54c0-1.8-1.28-2.74-3.56-2.74a9.3692,9.3692,0,0,0-3.5.62v2.7h.92a7.853,7.853,0,0,0,.7-1.7,1.995,1.995,0,0,1,1.36-.44,1.7459,1.7459,0,0,1,1.86,1.94V9.14c-3.36,0-5.58,1.62-5.58,3.3a2.6573,2.6573,0,0,0,2.76,2.76,3.8549,3.8549,0,0,0,3.06-1.82h.02a4.0883,4.0883,0,0,0,.6,1.82,10.335,10.335,0,0,0,2.9-1.44l-.3-.8A6.3053,6.3053,0,0,1,26.4683,13.16Zm-2.36-1.56a1.9912,1.9912,0,0,1-1.88,2,1.5066,1.5066,0,0,1-1.44-1.58c0-.92.66-1.84,3.32-1.8Z"/><path d="M34.698,13.4l-1.9-.06c-1.34-.04-1.76-.32-1.76-.78a1.1819,1.1819,0,0,1,.52-.84,4.53,4.53,0,0,0,1.06.12c2.66,0,4.44-1.24,4.44-3.76a2.671,2.671,0,0,0-.94-1.96l1.78.16V5h-3.24a7.0164,7.0164,0,0,0-1.54-.2c-2.78,0-4.36,1.62-4.36,3.88a2.9862,2.9862,0,0,0,1.64,2.72,2.3816,2.3816,0,0,0-1.34,1.9,1.6017,1.6017,0,0,0,1.3,1.58,3.1063,3.1063,0,0,0-2.1,2.54c0,1.68,1.6,2.56,4.36,2.56,3,0,5.48-1.7,5.48-3.8C38.098,14.68,37.018,13.48,34.698,13.4Zm-1.92-7.42c1.22,0,2.1.96,2.1,2.52,0,1.28-.54,2.18-1.82,2.18-1.24,0-2.12-.9-2.12-2.46C30.938,6.9,31.478,5.98,32.778,5.98Zm.4,12.68c-1.68,0-2.78-.72-2.78-1.8a1.9522,1.9522,0,0,1,1.26-1.72,5.0566,5.0566,0,0,0,.56.02l1.72.08c1.32.06,1.92.68,1.92,1.5C35.858,17.98,34.798,18.66,33.178,18.66Z"/><path d="M55.4183,9.2c0-3.04-1.12-4.4-3.24-4.4a3.634,3.634,0,0,0-3.42,2.16,2.7769,2.7769,0,0,0-3-2.16,3.5852,3.5852,0,0,0-3.38,2.12l-.04-.02a14.0817,14.0817,0,0,0,.14-1.96,16.3287,16.3287,0,0,0-3.68.3v.8a8.9038,8.9038,0,0,1,1.52.4v7.14a5.6936,5.6936,0,0,0-1.52.64V15h4.92v-.74a5.7729,5.7729,0,0,0-1.2-.66V9.44c0-1.52.88-3.12,2.42-3.12,1.42,0,1.76,1.2,1.76,2.34V13.6a6.6792,6.6792,0,0,0-1.18.66V15h4.58v-.74a7.2832,7.2832,0,0,0-1.18-.66V9.44c0-1.52.84-3.12,2.42-3.12,1.38,0,1.84,1.24,1.84,3.42,0,1.28-.04,2.78-.1,3.86a5.3037,5.3037,0,0,0-1.2.66V15h4.86v-.78a6.8073,6.8073,0,0,0-1.44-.64C55.3783,12.34,55.4183,10.54,55.4183,9.2Z"/><path d="M61.9594,4.82c-2.96,0-4.56,2.18-4.56,5.2,0,3.42,1.72,5.16,4.6,5.16a7.0157,7.0157,0,0,0,4.04-1.32l-.36-1.02a5.9034,5.9034,0,0,1-2.86.74c-1.96,0-3.08-1.1-3.08-3.44V9.9h6.34c.02-.22.02-.5.02-.8C66.0994,6.48,64.7794,4.82,61.9594,4.82Zm-2.2,3.98c.12-1.54.8-2.8,2.1-2.8s1.94,1.24,1.92,2.8Z"/><path d="M77.3756,9.22c0-2.98-1.06-4.42-3.24-4.42a3.65,3.65,0,0,0-3.48,2.12l-.02-.02a14.3075,14.3075,0,0,0,.12-1.96,16.5108,16.5108,0,0,0-3.7.3v.8a9.1359,9.1359,0,0,1,1.54.4v7.14a5.8244,5.8244,0,0,0-1.54.64V15h5.02v-.74a6.7862,6.7862,0,0,0-1.26-.66V9.44c0-1.54.84-3.12,2.44-3.12,1.46,0,1.86,1.34,1.86,3.44,0,1.16-.02,2.72-.1,3.84a5.3877,5.3877,0,0,0-1.26.66V15h4.94v-.78a6.8073,6.8073,0,0,0-1.44-.64C77.3356,12.2,77.3756,10.52,77.3756,9.22Z"/><path d="M83.317,13.54c-.7,0-.94-.42-.94-1.76V6.2h2.66V5h-2.66V2.08h-1.46L80.097,5h-1.34V6.2h1.4v6.08c0,2.06.78,2.88,2.34,2.88a4.5929,4.5929,0,0,0,2.74-1.06l-.34-1.04A3.13,3.13,0,0,1,83.317,13.54Z"/><path d="M88.5575,7.14A1.0945,1.0945,0,0,1,89.7775,6a3.4565,3.4565,0,0,1,1.36.28,6.8168,6.8168,0,0,0,.56,1.56h.96V5.08a10.0925,10.0925,0,0,0-2.46-.26c-2.34,0-3.84,1.2-3.84,2.82,0,3.46,4.78,2.62,4.78,4.98,0,.88-.56,1.24-1.38,1.24a4.33,4.33,0,0,1-1.76-.38,9.6451,9.6451,0,0,0-.58-1.56h-.98v2.94a11.0919,11.0919,0,0,0,2.82.3c2.2,0,4.12-1.24,4.12-3.08C93.3775,8.74,88.5575,9.52,88.5575,7.14Z"/><path d="M107.399.3a16.831,16.831,0,0,0-3.76.28V1.4a11.544,11.544,0,0,1,1.54.4V4.94a13.7084,13.7084,0,0,0-1.54-.08c-3.12,0-5.36,1.94-5.36,5.64,0,2.8,1.42,4.7,3.78,4.7a3.4983,3.4983,0,0,0,3.3-2.16l.02.02a14.3585,14.3585,0,0,0-.1,2.02,13.5256,13.5256,0,0,0,3.56-.34v-.82a10.6522,10.6522,0,0,1-1.44-.38Zm-2.22,10.22c0,1.76-1.02,3.14-2.26,3.14-1.5,0-2.34-1.46-2.34-3.56,0-2.64,1.04-4.04,2.72-4.04a3.3175,3.3175,0,0,1,1.88.5Z"/><path d="M114.077,4.82c-2.96,0-4.56,2.18-4.56,5.2,0,3.42,1.72,5.16,4.6,5.16a7.0157,7.0157,0,0,0,4.04-1.32l-.36-1.02a5.9034,5.9034,0,0,1-2.86.74c-1.96,0-3.08-1.1-3.08-3.44V9.9h6.34c.02-.22.02-.5.02-.8C118.217,6.48,116.897,4.82,114.077,4.82Zm-2.2,3.98c.12-1.54.8-2.8,2.1-2.8s1.94,1.24,1.92,2.8Z"/><path d="M122.988,2.26a9.269,9.269,0,0,0,1.58.7V13.54a7.5274,7.5274,0,0,0-1.58.68V15h5.5v-.78a8.3509,8.3509,0,0,0-1.64-.68V8.78h2.68a5.9779,5.9779,0,0,0,.62,1.3h.9V6.34h-.9a6.0481,6.0481,0,0,0-.62,1.3h-2.68V2.72h3.28a7.6677,7.6677,0,0,0,.66,1.9h1.02V1.5h-8.82Z"/><path d="M136.382,7.34h-.06a21.96,21.96,0,0,0,.18-2.4,16.5108,16.5108,0,0,0-3.7.3v.8a9.1359,9.1359,0,0,1,1.54.4v7.14a5.8244,5.8244,0,0,0-1.54.64V15h5.3v-.78a7.5556,7.5556,0,0,0-1.54-.64V10.04c0-1.64.78-3.22,1.98-3.22a3.7876,3.7876,0,0,1,1.52.38l.28-2.18a4.8227,4.8227,0,0,0-1.44-.22C137.682,4.8,136.902,5.82,136.382,7.34Z"/><path d="M148.601,13.16a3.6407,3.6407,0,0,1-.14-1.14V7.54c0-1.8-1.28-2.74-3.56-2.74a9.3692,9.3692,0,0,0-3.5.62v2.7h.92a7.853,7.853,0,0,0,.7-1.7,1.995,1.995,0,0,1,1.36-.44,1.7459,1.7459,0,0,1,1.86,1.94V9.14c-3.36,0-5.58,1.62-5.58,3.3a2.6573,2.6573,0,0,0,2.76,2.76,3.8549,3.8549,0,0,0,3.06-1.82h.02a4.0883,4.0883,0,0,0,.6,1.82,10.335,10.335,0,0,0,2.9-1.44l-.3-.8A6.3053,6.3053,0,0,1,148.601,13.16Zm-2.36-1.56a1.9912,1.9912,0,0,1-1.88,2,1.5066,1.5066,0,0,1-1.44-1.58c0-.92.66-1.84,3.32-1.8Z"/><path d="M160.911,9.22c0-2.98-1.06-4.42-3.24-4.42a3.65,3.65,0,0,0-3.48,2.12l-.02-.02a14.3075,14.3075,0,0,0,.12-1.96,16.5108,16.5108,0,0,0-3.7.3v.8a9.1359,9.1359,0,0,1,1.54.4v7.14a5.8244,5.8244,0,0,0-1.54.64V15h5.02v-.74a6.7862,6.7862,0,0,0-1.26-.66V9.44c0-1.54.84-3.12,2.44-3.12,1.46,0,1.86,1.34,1.86,3.44,0,1.16-.02,2.72-.1,3.84a5.3877,5.3877,0,0,0-1.26.66V15h4.94v-.78a6.8073,6.8073,0,0,0-1.44-.64C160.871,12.2,160.911,10.52,160.911,9.22Z"/><path d="M168.207,13.52c-1.84,0-3.12-1.16-3.12-3.62,0-2.18.76-3.8,2.18-3.8a2.8283,2.8283,0,0,1,1.5.36,5.7251,5.7251,0,0,0,.641,1.74h.94V5.18a10.2854,10.2854,0,0,0-2.601-.32c-3.34,0-5,2.08-5,5.42,0,3.48,2.021,4.88,4.541,4.88a5.705,5.705,0,0,0,3.4-1.1l-.34-1.04A4.4921,4.4921,0,0,1,168.207,13.52Z"/><path d="M180.029,9.9c.02-.22.02-.5.02-.8,0-2.62-1.32-4.28-4.14-4.28-2.96,0-4.56,2.18-4.56,5.2,0,3.42,1.72,5.16,4.6,5.16a7.0157,7.0157,0,0,0,4.04-1.32l-.36-1.02a5.9034,5.9034,0,0,1-2.86.74c-1.96,0-3.08-1.1-3.08-3.44V9.9ZM175.809,6c1.3,0,1.94,1.24,1.92,2.8h-4.02C173.829,7.26,174.509,6,175.809,6Z"/></g></svg>
