<svg viewBox="0 0 36 32" fill="none" xmlns="http://www.w3.org/2000/svg">
  <rect class="background" width="36" height="32" />
  <path class="fill-1" fill-rule="evenodd" clip-rule="evenodd" d="M20 0H0V32H20C28.8366 32 36 24.8366 36 16C36 7.16344 28.8366 0 20 0Z" fill="white"/>
  <g class="stroke-1">
    <mask id="path-3-inside-1_5_22">
    <path fill-rule="evenodd" clip-rule="evenodd" d="M20 0H0V32H20C28.8366 32 36 24.8366 36 16C36 7.16344 28.8366 0 20 0Z"/>
    </mask>
    <path d="M0 0V-1.5H-1.5V0H0ZM0 32H-1.5V33.5H0V32ZM0 1.5H20V-1.5H0V1.5ZM1.5 32V0H-1.5V32H1.5ZM20 30.5H0V33.5H20V30.5ZM34.5 16C34.5 24.0081 28.0081 30.5 20 30.5V33.5C29.665 33.5 37.5 25.665 37.5 16H34.5ZM20 1.5C28.0081 1.5 34.5 7.99187 34.5 16H37.5C37.5 6.33502 29.665 -1.5 20 -1.5V1.5Z" mask="url(#path-3-inside-1_5_22)"/>
  </g>
  <path class="stroke-1" fill-rule="evenodd" clip-rule="evenodd" d="M21.5303 9.96969C21.2374 9.67679 20.7626 9.67679 20.4697 9.96969C20.1768 10.2626 20.1768 10.7375 20.4697 11.0303L24.6893 15.25H7.75C7.33579 15.25 7 15.5858 7 16C7 16.4142 7.33579 16.75 7.75 16.75H24.6893L20.4697 20.9697C20.1768 21.2626 20.1768 21.7375 20.4697 22.0303C20.7626 22.3232 21.2374 22.3232 21.5303 22.0303L27.0303 16.5303C27.3232 16.2375 27.3232 15.7626 27.0303 15.4697L21.5303 9.96969Z" />
</svg>
