<svg viewBox="0 0 160 320" fill="none" xmlns="http://www.w3.org/2000/svg">
  <style>
    .background { fill: transparent; }
    .fill-1 { fill: black; }
  </style>
  <rect class="background" x="0" y="0" width="160" height="320" />
  <path class="fill-1" d="M0 80H160V240H0V80Z" />
  <path class="fill-1" d="M160 80C160 124.183 124.183 160 80 160C35.8172 160 0 124.183 0 80C0 35.8172 35.8172 0 80 0C124.183 0 160 35.8172 160 80Z" />
  <path class="fill-1" d="M160 240C160 284.183 124.183 320 80 320C35.8172 320 0 284.183 0 240C0 195.817 35.8172 160 80 160C124.183 160 160 195.817 160 240Z" />
</svg>
