<svg viewBox="0 0 160 320" fill="none" xmlns="http://www.w3.org/2000/svg">
  <path fill-rule="evenodd" clip-rule="evenodd" d="M25.1476 135.852C11.4349 121.643 3 102.306 3 81C3 37.3695 38.3695 2 82 2C103.306 2 122.643 10.4349 136.852 24.1476C122.485 9.2596 102.324 0 80 0C36.3695 0 1 35.3695 1 79C1 101.324 10.2596 121.485 25.1476 135.852ZM25.1486 297.853C11.4359 283.643 3.00095 264.306 3.00095 243C3.00095 199.37 38.3704 164 82.0009 164C103.307 164 122.644 172.435 136.853 186.148C122.486 171.26 102.325 162 80.0009 162C36.3704 162 1.00095 197.37 1.00095 241C1.00095 263.324 10.2605 283.485 25.1486 297.853Z" fill="black"/>
</svg>
