<svg viewBox="0 0 672 557" fill="none" xmlns="http://www.w3.org/2000/svg">
  <path d="M368.464 317.154V301.415H364.829C363.618 304.488 362.22 308.679 361.567 311.566L343.022 312.404V259.972C345.631 259.32 348.054 258.109 350.291 257.085V254.291H326.899V257.085C329.136 258.202 331.559 259.32 334.075 260.065V311.38C331.465 312.125 329.136 313.149 326.899 314.36V317.154H368.464Z" fill="#0E1B4C"/>
  <path d="M412.428 289.401C412.428 277.667 406.65 269.937 394.255 269.937C380.835 269.937 373.286 280.088 373.286 294.709C373.286 309.889 380.835 317.899 394.068 317.899C401.058 317.899 407.488 315.291 412.428 311.473L410.843 307.841C407.488 310.169 401.99 311.845 397.423 311.845C388.011 311.845 382.512 305.978 382.512 294.151C382.512 293.592 382.512 293.219 382.512 292.847H412.428C412.428 291.822 412.428 290.518 412.428 289.401ZM403.108 288.656H382.699C383.351 280.647 386.799 274.407 393.323 274.407C399.94 274.407 403.201 280.554 403.108 288.656Z" fill="#0E1B4C"/>
  <path d="M451.266 303.929C451.266 288.47 428.992 292.195 428.992 280.367C428.992 276.828 431.229 274.593 435.237 274.593C437.939 274.593 440.362 275.245 441.76 275.99C442.413 278.691 443.344 281.485 444.556 283.627H447.911V271.147C445.115 270.402 441.201 269.937 437.194 269.937C427.222 269.937 420.419 275.525 420.419 282.696C420.419 298.621 442.506 294.616 442.506 306.257C442.506 310.728 439.71 312.59 435.609 312.59C432.161 312.59 429.179 311.659 426.942 310.728C426.383 308.213 425.171 305.419 424.146 303.091H420.698V316.409C424.426 317.34 428.433 317.805 433.186 317.805C442.599 317.805 451.266 312.031 451.266 303.929Z" fill="#0E1B4C"/>
  <path d="M61.6222 413.878H57.9971C56.324 417.031 55.1157 420.37 54.465 422.411H34.0161V422.318L45.356 412.301C54.1862 404.881 59.3914 398.481 59.3914 391.617C59.3914 383.547 54.1862 377.797 41.9168 377.797C36.6187 377.797 31.7853 378.724 27.2308 380.579L26.6731 393.286H30.1122C31.8783 390.504 33.1796 387.165 33.8302 384.568C35.6892 383.269 37.5482 382.62 40.0578 382.62C47.0291 382.62 50.0964 386.423 50.0964 392.637C50.0964 398.573 45.6348 404.973 38.6636 411.466L25 424.173V428.904H60.9715L61.6222 413.878Z" fill="#0E1B4C"/>
  <path d="M119.363 402.747C119.363 385.959 109.325 377.797 95.7543 377.797C82.2766 377.797 69.7284 388.185 69.7284 404.788C69.7284 421.576 79.7669 429.738 93.3376 429.738C106.722 429.738 119.363 419.35 119.363 402.747ZM109.976 403.767C109.976 416.567 104.677 424.266 95.1036 424.266C83.9497 424.266 79.0233 415.083 79.0233 403.767C79.0233 390.967 84.4144 383.269 93.9882 383.269C105.049 383.269 109.976 392.452 109.976 403.767Z" fill="#0E1B4C"/>
  <path d="M194.24 425.101C190.429 424.451 187.734 423.431 187.734 423.431V360.637C178.625 360.452 171.932 361.843 171.932 361.843V364.718C176.208 365.46 178.996 366.388 178.996 366.388V382.527C178.996 382.527 175.093 382.063 171.003 382.063C157.06 382.063 146.464 390.596 146.464 408.034C146.464 421.02 153.064 429.738 163.939 429.738C171.746 429.738 177.416 424.822 179.647 419.35L179.74 419.443C179.74 419.443 179.089 423.431 179.182 429.182C187.641 429.46 194.24 428.069 194.24 428.069V425.101ZM178.996 408.405C178.996 416.938 173.791 423.617 167.564 423.617C159.849 423.617 155.573 416.475 155.573 406.086C155.573 393.286 160.685 386.608 169.33 386.608C173.327 386.608 176.487 387.536 178.996 389.205V408.405Z" fill="#0E1B4C"/>
  <path d="M238.491 401.263C238.491 389.576 232.729 381.878 220.366 381.878C206.982 381.878 199.453 391.988 199.453 406.55C199.453 421.669 206.982 429.646 220.18 429.646C227.152 429.646 233.565 427.049 238.491 423.246L236.911 419.628C233.565 421.947 228.081 423.617 223.527 423.617C214.139 423.617 208.655 417.773 208.655 405.994C208.655 405.437 208.655 405.066 208.655 404.695H238.491C238.491 403.675 238.491 402.376 238.491 401.263ZM229.196 400.521H208.841C209.491 392.544 212.93 386.33 219.437 386.33C226.036 386.33 229.289 392.452 229.196 400.521Z" fill="#0E1B4C"/>
  <path d="M278.157 415.733C278.157 400.336 255.942 404.046 255.942 392.266C255.942 388.741 258.173 386.515 262.17 386.515C264.865 386.515 267.282 387.165 268.676 387.907C269.327 390.596 270.256 393.379 271.465 395.512H274.811V383.083C272.022 382.341 268.118 381.878 264.122 381.878C254.176 381.878 247.391 387.443 247.391 394.585C247.391 410.446 269.42 406.457 269.42 418.051C269.42 422.504 266.631 424.359 262.541 424.359C259.102 424.359 256.128 423.431 253.897 422.504C253.339 419.999 252.131 417.217 251.109 414.898H247.67V428.162C251.387 429.089 255.384 429.553 260.125 429.553C269.513 429.553 278.157 423.802 278.157 415.733Z" fill="#0E1B4C"/>
  <path d="M311.76 421.02C308.972 422.689 306.555 423.524 303.953 423.524C300.421 423.524 299.212 421.205 299.212 414.249V387.165H312.318V382.712H299.212V369.541H294.286L290.475 382.712H282.853V387.165H290.475V416.66C290.475 425.75 293.914 429.646 300.421 429.646C305.161 429.646 309.437 427.605 313.155 424.544L311.76 421.02Z" fill="#0E1B4C"/>
  <path d="M335.845 368.057C335.845 364.718 333.429 362.214 329.989 362.214C326.643 362.214 324.134 364.718 324.134 368.057C324.134 371.304 326.643 373.808 329.989 373.808C333.429 373.808 335.845 371.304 335.845 368.057ZM340.865 428.904V426.121C340.865 426.121 337.89 424.359 334.358 423.338V382.434C325.249 382.156 318.557 383.547 318.557 383.547V386.423C322.646 387.165 325.621 388.185 325.621 388.185V423.338C321.903 424.266 318.557 426.121 318.557 426.121V428.904H340.865Z" fill="#0E1B4C"/>
  <path d="M398.276 428.904V426.121C398.276 426.121 395.395 424.359 391.956 423.338C391.956 423.338 392.42 414.62 392.42 402.469C392.42 388.556 387.587 381.878 377.455 381.878C369.276 381.878 363.513 386.608 361.282 392.081H361.096C361.096 392.081 361.747 388.185 361.747 382.434C352.824 382.156 346.039 383.547 346.039 383.547V386.423C350.221 387.165 353.103 388.185 353.103 388.185V423.338C349.199 424.359 346.039 426.121 346.039 426.121V428.904H368.068V426.214C368.068 426.214 365.186 424.544 361.84 423.431V403.118C361.84 395.791 366.302 387.721 374.202 387.721C381.545 387.721 383.59 394.399 383.59 404.788C383.59 415.269 383.218 423.431 383.218 423.431C379.872 424.544 376.991 426.214 376.991 426.214V428.904H398.276Z" fill="#0E1B4C"/>
  <path d="M444.092 420.834C441.303 421.669 439.072 421.854 439.072 421.854C439.072 421.854 438.329 419.999 438.329 416.104V395.049C438.329 385.773 432.473 381.878 422.341 381.878C416.3 381.878 411.373 382.991 407.005 384.66V396.718H410.258C410.258 396.718 412.303 393.472 413.604 388.278C413.604 388.278 416.3 386.33 420.389 386.33C426.617 386.33 429.591 390.411 429.591 396.718V401.912C413.232 401.82 403.752 409.611 403.752 417.124C403.752 424.451 408.864 429.738 416.393 429.738C422.156 429.738 427.918 426.028 430.521 421.112H430.614C430.614 421.112 430.707 425.936 433.124 429.924C439.909 427.976 445.3 423.802 445.3 423.802L444.092 420.834ZM429.591 413.321C429.591 419.443 424.386 423.524 420.018 423.524C415.835 423.524 412.675 420.185 412.675 415.454C412.675 410.724 416.114 405.994 429.591 406.272V413.321Z" fill="#0E1B4C"/>
  <path d="M476.06 421.02C473.271 422.689 470.855 423.524 468.252 423.524C464.72 423.524 463.512 421.205 463.512 414.249V387.165H476.617V382.712H463.512V369.541H458.585L454.774 382.712H447.152V387.165H454.774V416.66C454.774 425.75 458.213 429.646 464.72 429.646C469.46 429.646 473.736 427.605 477.454 424.544L476.06 421.02Z" fill="#0E1B4C"/>
  <path d="M500.145 368.057C500.145 364.718 497.728 362.214 494.289 362.214C490.943 362.214 488.433 364.718 488.433 368.057C488.433 371.304 490.943 373.808 494.289 373.808C497.728 373.808 500.145 371.304 500.145 368.057ZM505.164 428.904V426.121C505.164 426.121 502.19 424.359 498.657 423.338V382.434C489.548 382.156 482.856 383.547 482.856 383.547V386.423C486.946 387.165 489.92 388.185 489.92 388.185V423.338C486.202 424.266 482.856 426.121 482.856 426.121V428.904H505.164Z" fill="#0E1B4C"/>
  <path d="M556.54 404.695C556.54 390.133 548.361 381.878 535.255 381.878C521.87 381.878 510.623 390.689 510.623 406.828C510.623 421.483 518.803 429.738 531.909 429.738C545.293 429.738 556.54 420.834 556.54 404.695ZM547.245 406.365C547.245 418.422 542.412 424.637 534.511 424.637C525.123 424.637 519.918 416.753 519.918 405.159C519.918 393.101 524.752 386.886 532.559 386.886C541.947 386.886 547.245 394.863 547.245 406.365Z" fill="#0E1B4C"/>
  <path d="M615.473 428.904V426.121C615.473 426.121 612.592 424.359 609.153 423.338C609.153 423.338 609.617 414.62 609.617 402.469C609.617 388.556 604.784 381.878 594.653 381.878C586.473 381.878 580.71 386.608 578.479 392.081H578.293C578.293 392.081 578.944 388.185 578.944 382.434C570.021 382.156 563.236 383.547 563.236 383.547V386.423C567.418 387.165 570.3 388.185 570.3 388.185V423.338C566.396 424.359 563.236 426.121 563.236 426.121V428.904H585.265V426.214C585.265 426.214 582.383 424.544 579.037 423.431V403.118C579.037 395.791 583.499 387.721 591.399 387.721C598.742 387.721 600.787 394.399 600.787 404.788C600.787 415.269 600.415 423.431 600.415 423.431C597.069 424.544 594.188 426.214 594.188 426.214V428.904H615.473Z" fill="#0E1B4C"/>
  <path d="M653.481 415.733C653.481 400.336 631.266 404.046 631.266 392.266C631.266 388.741 633.497 386.515 637.494 386.515C640.189 386.515 642.606 387.165 644 387.907C644.651 390.596 645.58 393.379 646.789 395.512H650.135V383.083C647.346 382.341 643.442 381.878 639.446 381.878C629.5 381.878 622.715 387.443 622.715 394.585C622.715 410.446 644.744 406.457 644.744 418.051C644.744 422.504 641.955 424.359 637.865 424.359C634.426 424.359 631.452 423.431 629.221 422.504C628.663 419.999 627.455 417.217 626.433 414.898H622.994V428.162C626.712 429.089 630.708 429.553 635.449 429.553C644.837 429.553 653.481 423.802 653.481 415.733Z" fill="#0E1B4C"/>
  <path d="M76.4915 536.414C72.6871 535.771 69.9962 534.762 69.9962 534.762V472.662C60.9027 472.479 54.2219 473.855 54.2219 473.855V476.698C58.4902 477.432 61.2739 478.35 61.2739 478.35V494.31C61.2739 494.31 57.3767 493.852 53.294 493.852C39.3754 493.852 28.7974 502.291 28.7974 519.536C28.7974 532.377 35.3855 541 46.2419 541C54.0363 541 59.6965 536.138 61.9234 530.726L62.0162 530.818C62.0162 530.818 61.3667 534.762 61.4595 540.45C69.9034 540.725 76.4915 539.349 76.4915 539.349V536.414ZM61.2739 519.902C61.2739 528.341 56.0777 534.946 49.8607 534.946C42.1591 534.946 37.8908 527.883 37.8908 517.609C37.8908 504.951 42.9943 498.346 51.6237 498.346C55.6137 498.346 58.7686 499.264 61.2739 500.915V519.902Z" fill="#0E1B4C"/>
  <path d="M131.329 536.414C127.339 535.68 124.834 534.762 124.834 534.762V494.219C115.833 493.943 109.431 495.319 109.431 495.319V498.163C113.513 498.897 116.111 499.906 116.111 499.906V519.994C116.111 527.241 111.658 535.129 103.77 535.129C96.4399 535.129 94.3985 528.525 94.3985 518.343C94.3985 505.318 94.9553 494.219 94.9553 494.219C85.8618 493.943 79.6449 495.319 79.6449 495.319V498.163C83.5421 498.897 85.9546 499.906 85.9546 499.906C85.9546 499.906 85.5835 508.528 85.5835 520.636C85.5835 534.304 90.3158 541 100.523 541C108.503 541 114.348 536.505 116.668 530.91H116.854C116.854 530.91 116.204 534.762 116.204 540.45C124.926 540.725 131.329 539.349 131.329 539.349V536.414Z" fill="#0E1B4C"/>
  <path d="M305.369 531.827L297.114 515.683L305.554 499.355L301.659 497.337L287.745 515.775L301.288 533.937L305.369 531.827ZM288.209 533.02L279.305 515.683L288.395 498.163L284.406 496.145L269.937 515.775L284.128 535.129L288.209 533.02Z" fill="#0E1B4C"/>
  <path d="M403.965 540.174V537.423C402.574 536.322 400.719 535.221 398.771 534.395L392.278 484.128C394.69 483.486 397.287 482.202 399.327 481.01V478.258H382.261L363.71 526.782L344.788 478.258H327.721V481.01C329.854 482.11 332.451 483.395 334.863 484.128L328.463 534.579C326.886 535.129 325.031 536.23 323.454 537.423V540.174H342.19V537.423C340.428 536.322 338.48 535.313 335.698 534.579L339.037 488.715H339.13L359.165 540.174H364.452L384.023 488.164H384.116L389.31 534.304C386.898 534.946 384.394 536.23 382.446 537.423V540.174H403.965Z" fill="#0E1B4C"/>
  <path d="M454.498 516.233C454.498 501.832 446.336 493.668 433.258 493.668C419.901 493.668 408.678 502.382 408.678 518.343C408.678 532.836 416.84 541 429.918 541C443.275 541 454.498 532.194 454.498 516.233ZM445.223 517.884C445.223 529.809 440.4 535.955 432.516 535.955C423.147 535.955 417.953 528.158 417.953 516.692C417.953 504.767 422.776 498.621 430.568 498.621C439.936 498.621 445.223 506.51 445.223 517.884Z" fill="#0E1B4C"/>
  <path d="M512.38 540.174V537.423C512.38 537.423 509.505 535.68 506.073 534.671C506.073 534.671 506.537 526.048 506.537 514.032C506.537 500.273 501.714 493.668 491.603 493.668C483.441 493.668 477.69 498.346 475.464 503.758H475.278C475.278 503.758 475.928 499.906 475.928 494.219C467.023 493.943 460.252 495.319 460.252 495.319V498.163C464.426 498.897 467.302 499.906 467.302 499.906V534.671C463.406 535.68 460.252 537.423 460.252 537.423V540.174H482.235V537.514C482.235 537.514 479.36 535.863 476.02 534.762V514.674C476.02 507.427 480.473 499.447 488.357 499.447C495.685 499.447 497.725 506.051 497.725 516.325C497.725 526.69 497.354 534.762 497.354 534.762C494.015 535.863 491.14 537.514 491.14 537.514V540.174H512.38Z" fill="#0E1B4C"/>
  <path d="M564.964 536.414C561.161 535.771 558.471 534.762 558.471 534.762V472.662C549.381 472.479 542.703 473.855 542.703 473.855V476.698C546.969 477.432 549.752 478.35 549.752 478.35V494.31C549.752 494.31 545.856 493.852 541.775 493.852C527.862 493.852 517.288 502.291 517.288 519.536C517.288 532.377 523.873 541 534.726 541C542.517 541 548.175 536.138 550.401 530.726L550.494 530.818C550.494 530.818 549.845 534.762 549.937 540.45C558.378 540.725 564.964 539.349 564.964 539.349V536.414ZM549.752 519.902C549.752 528.341 544.558 534.946 538.343 534.946C530.644 534.946 526.378 527.883 526.378 517.609C526.378 504.951 531.479 498.346 540.105 498.346C544.094 498.346 547.248 499.264 549.752 500.915V519.902Z" fill="#0E1B4C"/>
  <path d="M608.195 512.839C608.195 501.282 602.444 493.668 590.108 493.668C576.751 493.668 569.238 503.667 569.238 518.068C569.238 533.02 576.751 540.908 589.922 540.908C596.879 540.908 603.279 538.34 608.195 534.579L606.618 531.002C603.279 533.295 597.806 534.946 593.261 534.946C583.893 534.946 578.42 529.167 578.42 517.517C578.42 516.967 578.42 516.6 578.42 516.233H608.195C608.195 515.224 608.195 513.94 608.195 512.839ZM598.919 512.106H578.606C579.255 504.217 582.687 498.071 589.18 498.071C595.766 498.071 599.012 504.125 598.919 512.106Z" fill="#0E1B4C"/>
  <path d="M662.974 515.499L648.876 496.145L644.702 498.255L653.699 515.591L644.609 533.111L648.505 535.129L662.974 515.499ZM645.166 515.499L631.623 497.337L627.635 499.447L635.89 515.591L627.449 531.919L631.345 533.937L645.166 515.499Z" fill="#0E1B4C"/>
  <path d="M57.0108 87.616C77.9481 87.616 88.8355 72.349 88.8355 53.0109C88.8355 33.6727 77.9481 18.4057 57.0108 18.4057C36.0735 18.4057 25 33.6727 25 53.0109C25 72.349 36.0735 87.616 57.0108 87.616ZM56.9178 74.5697C49.1942 74.5697 46.4026 67.4451 46.4026 53.0109C46.4026 38.7617 49.1942 31.452 56.9178 31.452C64.8274 31.452 67.433 38.7617 67.433 53.0109C67.433 67.4451 64.8274 74.5697 56.9178 74.5697Z" fill="#0E1B4C"/>
  <path d="M111.528 87.0609C116.739 87.0609 123.439 84.4701 126.51 74.8473H126.789L127.719 86.1356H145.214V36.1709H126.23V60.9682C126.23 70.4985 123.718 74.107 120.182 74.107C116.739 74.107 115.715 72.349 115.715 68.3704V36.1709H96.7321V72.9967C96.7321 80.8615 101.199 87.0609 111.528 87.0609ZM115.622 31.0819H128.092L122.508 16.4626H106.317L115.622 31.0819Z" fill="#0E1B4C"/>
  <path d="M196.272 76.2352C191.992 76.2352 189.2 71.4238 189.2 61.2458C189.2 51.0678 191.34 45.6087 195.993 45.6087C200.832 45.6087 202.786 50.9753 202.786 61.1532C202.786 71.7013 200.553 76.2352 196.272 76.2352ZM169.752 107.139H188.456V80.5839H189.2C191.899 84.3776 195.435 87.0609 201.856 87.0609C214.139 87.0609 222.7 77.253 222.7 61.1532C222.7 46.3489 216.279 35.2456 203.065 35.2456C195.528 35.2456 190.596 39.5944 188.084 47.0891H187.432L186.129 36.1709H169.752V107.139Z" fill="#0E1B4C"/>
  <path d="M242.585 87.0609C249.75 87.0609 254.31 83.8224 257.009 77.7156H257.753C258.405 84.4701 263.523 87.0609 270.223 87.0609C273.014 87.0609 277.853 86.2281 279.156 85.3954V77.438C277.667 77.438 276.457 77.253 275.713 76.5128C274.689 75.68 274.224 74.1996 274.224 71.5163V51.5304C274.224 40.5197 266.5 35.2456 252.356 35.2456C242.213 35.2456 231.977 39.5944 230.395 52.1781L244.26 53.9361C244.912 48.8471 246.307 45.7937 250.495 45.7937C254.124 45.7937 255.334 47.9219 255.334 51.6229V55.2315C251.705 56.5269 247.703 58.0073 242.957 59.8579C236.63 62.3561 228.906 65.502 228.906 74.7547C228.906 82.0644 234.21 87.0609 242.585 87.0609ZM250.588 77.0679C248.355 77.0679 246.866 75.495 246.866 72.4416C246.866 68.833 248.448 67.075 250.774 65.9647C253.1 64.8543 254.124 64.3917 255.334 63.9291V69.2031C255.334 73.6444 254.496 77.0679 250.588 77.0679Z" fill="#0E1B4C"/>
  <path d="M285.659 86.1356H304.643V66.7974C304.643 56.0643 309.109 52.7333 315.344 52.7333C317.391 52.7333 318.88 53.1034 320.276 53.566V36.1709C319.345 35.7083 317.856 35.2456 316.181 35.2456C310.784 35.2456 306.783 40.1496 304.549 50.1425H304.363L303.34 36.1709H285.659V86.1356Z" fill="#0E1B4C"/>
  <path d="M348.243 86.1356H358.758V73.7369H355.874C354.012 73.7369 352.803 73.6444 351.5 72.9967C349.732 72.0715 349.174 70.7761 349.174 67.7227V47.6443H358.758V36.1709H349.174V19.0534H330.377V36.1709H324.142V47.6443H330.19V70.2209C330.19 79.2886 332.61 82.8046 336.983 84.5626C339.31 85.5804 342.474 86.1356 348.243 86.1356Z" fill="#0E1B4C"/>
  <path d="M366.035 31.5446H385.112V16H366.035V31.5446ZM366.035 86.1356H385.112V36.1709H366.035V86.1356Z" fill="#0E1B4C"/>
  <path d="M393.865 86.1356H412.848V66.7974C412.848 56.0643 417.314 52.7333 423.549 52.7333C425.596 52.7333 427.085 53.1034 428.481 53.566V36.1709C427.55 35.7083 426.062 35.2456 424.387 35.2456C418.989 35.2456 414.988 40.1496 412.755 50.1425H412.569L411.545 36.1709H393.865V86.1356Z" fill="#0E1B4C"/>
  <path d="M260.931 157.468C264.367 157.468 265.389 160.048 265.761 166.68H255.729C256.194 159.587 257.68 157.468 260.931 157.468ZM284.059 183.262L271.798 178.472C270.312 183.907 268.361 187.316 263.253 187.316C257.773 187.316 256.008 183.447 255.636 174.511H284.245C284.245 155.165 274.863 146.69 260.745 146.69C244.49 146.69 235.759 159.679 235.759 172.484C235.759 190.264 247.277 198.278 262.231 198.278C274.863 198.278 281.83 191.922 284.059 183.262Z" fill="#0E1B4C"/>
  <path d="M291.86 197.357H310.808V172.668C310.808 163.18 313.873 159.587 317.403 159.587C320.839 159.587 321.861 161.337 321.861 165.299V197.357H340.809V160.693C340.809 152.862 337.001 146.69 326.691 146.69C321.489 146.69 313.594 150.191 310.529 159.771H310.251L309.322 147.611H291.86V197.357Z" fill="#0E1B4C"/>
  <path d="M365.101 197.357H412.751V185.842H386.464V185.105C392.595 183.17 399.097 181.051 404.112 177.735C409.035 174.419 412.472 169.997 412.472 163.548C412.472 152.125 402.348 146.598 388.322 146.598C373.089 146.598 361.943 153.876 365.101 171.931L381.356 173.405C379.312 165.022 380.241 157.376 387.115 157.376C391.294 157.376 392.595 160.14 392.595 163.917C392.595 168.983 390.458 173.037 385.164 177.367C380.891 180.959 374.204 184.46 365.101 188.421V197.357Z" fill="#0E1B4C"/>
  <path d="M445.172 198.278C462.634 198.278 471.365 186.21 471.365 172.484C471.365 158.758 462.634 146.69 445.172 146.69C427.803 146.69 419.165 158.758 419.165 172.484C419.165 186.21 427.803 198.278 445.172 198.278ZM445.172 187.5C440.435 187.5 439.042 184.644 439.042 172.484C439.042 160.324 440.435 157.468 445.172 157.468C449.909 157.468 451.488 160.324 451.488 172.484C451.488 184.644 449.909 187.5 445.172 187.5Z" fill="#0E1B4C"/>
  <path d="M479.072 197.357H526.722V185.842H500.436V185.105C506.566 183.17 513.068 181.051 518.084 177.735C523.006 174.419 526.443 169.997 526.443 163.548C526.443 152.125 516.319 146.598 502.293 146.598C487.06 146.598 475.914 153.876 479.072 171.931L495.327 173.405C493.284 165.022 494.212 157.376 501.086 157.376C505.266 157.376 506.566 160.14 506.566 163.917C506.566 168.983 504.43 173.037 499.135 177.367C494.863 180.959 488.175 184.46 479.072 188.421V197.357Z" fill="#0E1B4C"/>
  <path d="M533.972 197.357H581.621V185.842H555.335V185.105C561.465 183.17 567.967 181.051 572.983 177.735C577.906 174.419 581.342 169.997 581.342 163.548C581.342 152.125 571.218 146.598 557.193 146.598C541.96 146.598 530.814 153.876 533.972 171.931L550.226 173.405C548.183 165.022 549.112 157.376 555.985 157.376C560.165 157.376 561.465 160.14 561.465 163.917C561.465 168.983 559.329 173.037 554.035 177.367C549.762 180.959 543.074 184.46 533.972 188.421V197.357Z" fill="#0E1B4C"/>
  <path d="M614.057 173.958H631.241L631.612 167.878C643.687 166.773 651.582 159.587 651.582 149.085C651.582 137.938 642.108 129.924 625.946 129.924C609.877 129.924 601.982 137.938 601.332 146.874L619.909 151.02C618.887 145.677 621.302 141.439 625.853 141.439C629.197 141.439 631.612 143.834 631.612 149.085C631.612 153.231 629.94 157.468 624.46 157.468H613.593L614.057 173.958ZM632.727 197.357V179.117H612.478V197.357H632.727Z" fill="#0E1B4C"/>
</svg>
